# Blender v2.79 (sub 0) OBJ File: ''
# www.blender.org
mtllib chair_basic.mtl
o Cube_Cube.001
v -0.250000 0.450000 0.250000
v -0.250000 0.550000 0.250000
v -0.250000 0.450000 -0.250000
v -0.250000 0.550000 -0.250000
v 0.250000 0.450000 0.250000
v 0.250000 0.550000 0.250000
v 0.250000 0.450000 -0.250000
v 0.250000 0.550000 -0.250000
v -0.250000 0.550000 0.000000
v -0.125000 0.550000 -0.250000
v 0.250000 0.550000 0.000000
v -0.125000 0.550000 0.250000
v -0.125000 0.550000 0.000000
v -0.250000 1.000000 0.250000
v -0.250000 1.000000 -0.250000
v -0.250000 1.000000 0.000000
v -0.125000 1.000000 -0.250000
v -0.125000 1.000000 0.250000
v -0.125000 1.000000 0.000000
v -0.250000 0.450000 -0.125000
v -0.250000 0.450000 0.125000
v 0.125000 0.450000 -0.250000
v -0.125000 0.450000 -0.250000
v 0.250000 0.450000 0.125000
v 0.250000 0.450000 -0.125000
v -0.125000 0.450000 0.250000
v 0.125000 0.450000 0.250000
v -0.125000 0.450000 -0.125000
v -0.125000 0.450000 0.125000
v 0.125000 0.450000 -0.125000
v 0.125000 0.450000 0.125000
v -0.250000 0.000000 0.125000
v -0.250000 0.000000 0.250000
v -0.125000 0.000000 -0.250000
v -0.250000 0.000000 -0.250000
v 0.250000 0.000000 -0.125000
v 0.250000 0.000000 -0.250000
v 0.125000 0.000000 0.250000
v 0.250000 0.000000 0.250000
v -0.250000 0.000000 -0.125000
v 0.125000 0.000000 -0.250000
v 0.250000 0.000000 0.125000
v -0.125000 0.000000 0.250000
v -0.125000 0.000000 0.125000
v -0.125000 0.000000 -0.125000
v 0.125000 0.000000 0.125000
v 0.125000 0.000000 -0.125000
vn -1.0000 -0.0000 0.0000
vn 0.0000 0.0000 -1.0000
vn 1.0000 -0.0000 0.0000
vn 0.0000 0.0000 1.0000
vn 0.0000 1.0000 0.0000
vn 0.0000 -1.0000 0.0000
usemtl None
s off
f 1//1 2//1 9//1 4//1 3//1 20//1 21//1
f 3//2 4//2 10//2 8//2 7//2 22//2 23//2
f 7//3 8//3 11//3 6//3 5//3 24//3 25//3
f 5//4 6//4 12//4 2//4 1//4 26//4 27//4
f 20//1 3//1 35//1 40//1
f 9//1 2//1 14//1 16//1
f 11//5 13//5 12//5 6//5
f 8//5 10//5 13//5 11//5
f 12//3 13//3 19//3 18//3
f 19//5 16//5 14//5 18//5
f 17//5 15//5 16//5 19//5
f 13//3 10//3 17//3 19//3
f 4//1 9//1 16//1 15//1
f 10//2 4//2 15//2 17//2
f 2//4 12//4 18//4 14//4
f 28//4 20//4 40//4 45//4
f 29//6 31//6 27//6 26//6
f 26//4 1//4 33//4 43//4
f 20//6 28//6 29//6 21//6
f 23//6 22//6 30//6 28//6
f 28//6 30//6 31//6 29//6
f 1//1 21//1 32//1 33//1
f 30//6 25//6 24//6 31//6
f 46//6 42//6 39//6 38//6
f 32//6 44//6 43//6 33//6
f 35//6 34//6 45//6 40//6
f 41//6 37//6 36//6 47//6
f 21//2 29//2 44//2 32//2
f 5//4 27//4 38//4 39//4
f 29//3 26//3 43//3 44//3
f 3//2 23//2 34//2 35//2
f 23//3 28//3 45//3 34//3
f 22//2 7//2 37//2 41//2
f 25//4 30//4 47//4 36//4
f 27//1 31//1 46//1 38//1
f 24//3 5//3 39//3 42//3
f 31//2 24//2 42//2 46//2
f 7//3 25//3 36//3 37//3
f 30//1 22//1 41//1 47//1
