# Blender v2.79 (sub 0) OBJ File: ''
# www.blender.org
mtllib table.mtl
o Cube_Cube.001
v 0.500000 0.950000 -0.500000
v 0.500000 1.050000 -0.500000
v 0.375000 0.950000 -0.500000
v 0.375000 0.000000 -0.375000
v 0.500000 0.000000 -0.375000
v 0.500000 0.950000 -0.375000
v 0.375000 0.000000 -0.500000
v 0.500000 0.000000 -0.500000
v 0.375000 0.950000 -0.375000
v -0.500000 0.950000 -0.500000
v -0.500000 1.050000 -0.500000
v 0.000000 0.950000 -0.500000
v 0.000000 1.050000 -0.500000
v -0.375000 0.950000 -0.500000
v -0.375000 0.000000 -0.375000
v -0.500000 0.000000 -0.375000
v -0.500000 0.950000 -0.375000
v 0.000000 0.950000 -0.375000
v -0.375000 0.000000 -0.500000
v -0.500000 0.000000 -0.500000
v -0.375000 0.950000 -0.375000
v 0.500000 0.950000 0.500000
v 0.500000 1.050000 0.500000
v 0.500000 1.050000 0.000000
v 0.500000 0.950000 0.000000
v 0.375000 0.950000 0.500000
v 0.375000 0.000000 0.375000
v 0.375000 0.950000 0.000000
v 0.500000 0.000000 0.375000
v 0.500000 0.950000 0.375000
v 0.375000 0.000000 0.500000
v 0.500000 0.000000 0.500000
v 0.375000 0.950000 0.375000
v -0.500000 0.950000 0.500000
v -0.500000 1.050000 0.500000
v 0.000000 0.950000 0.500000
v 0.000000 1.050000 0.500000
v -0.500000 1.050000 0.000000
v -0.500000 0.950000 0.000000
v 0.000000 1.050000 0.000000
v 0.000000 0.950000 0.000000
v -0.375000 0.950000 0.500000
v -0.375000 0.000000 0.375000
v -0.375000 0.950000 0.000000
v -0.500000 0.000000 0.375000
v -0.500000 0.950000 0.375000
v 0.000000 0.950000 0.375000
v -0.375000 0.000000 0.500000
v -0.500000 0.000000 0.500000
v -0.375000 0.950000 0.375000
vn 0.0000 -1.0000 0.0000
vn 0.0000 0.0000 1.0000
vn 0.0000 0.0000 -1.0000
vn -1.0000 0.0000 0.0000
vn 1.0000 0.0000 0.0000
vn 0.0000 1.0000 0.0000
usemtl None
s off
f 9//1 18//1 12//1 3//1
f 6//2 9//2 4//2 5//2
f 2//3 1//3 3//3 12//3 13//3
f 9//4 3//4 7//4 4//4
f 5//1 4//1 7//1 8//1
f 1//5 6//5 5//5 8//5
f 40//6 24//6 2//6 13//6
f 3//3 1//3 8//3 7//3
f 25//1 28//1 9//1 6//1
f 28//1 41//1 18//1 9//1
f 6//5 1//5 2//5 24//5 25//5
f 21//1 14//1 12//1 18//1
f 17//2 16//2 15//2 21//2
f 11//3 13//3 12//3 14//3 10//3
f 21//5 15//5 19//5 14//5
f 16//1 20//1 19//1 15//1
f 10//4 20//4 16//4 17//4
f 40//6 13//6 11//6 38//6
f 14//3 19//3 20//3 10//3
f 39//1 17//1 21//1 44//1
f 44//1 21//1 18//1 41//1
f 17//4 39//4 38//4 11//4 10//4
f 33//1 26//1 36//1 47//1
f 30//3 29//3 27//3 33//3
f 23//2 37//2 36//2 26//2 22//2
f 33//4 27//4 31//4 26//4
f 29//1 32//1 31//1 27//1
f 22//5 32//5 29//5 30//5
f 40//6 37//6 23//6 24//6
f 26//2 31//2 32//2 22//2
f 25//1 30//1 33//1 28//1
f 28//1 33//1 47//1 41//1
f 30//5 25//5 24//5 23//5 22//5
f 50//1 47//1 36//1 42//1
f 46//3 50//3 43//3 45//3
f 35//2 34//2 42//2 36//2 37//2
f 50//5 42//5 48//5 43//5
f 45//1 43//1 48//1 49//1
f 34//4 46//4 45//4 49//4
f 40//6 38//6 35//6 37//6
f 42//2 34//2 49//2 48//2
f 39//1 44//1 50//1 46//1
f 44//1 41//1 47//1 50//1
f 46//4 34//4 35//4 38//4 39//4
