# Blender v2.79 (sub 0) OBJ File: 'table_basic.blend'
# www.blender.org
mtllib table_basic.mtl
o Cube_Cube.001
v -0.500000 0.905000 0.500000
v -0.500000 1.005000 0.500000
v -0.500000 0.905000 -0.500000
v -0.500000 1.005000 -0.500000
v 0.500000 0.905000 0.500000
v 0.500000 1.005000 0.500000
v 0.500000 0.905000 -0.500000
v 0.500000 1.005000 -0.500000
v -0.500000 0.905000 -0.375000
v -0.500000 0.905000 0.375000
v 0.375000 0.905000 -0.500000
v -0.375000 0.905000 -0.500000
v 0.500000 0.905000 0.375000
v 0.500000 0.905000 -0.375000
v -0.375000 0.905000 0.500000
v 0.375000 0.905000 0.500000
v -0.375000 0.905000 -0.375000
v -0.375000 0.905000 0.375000
v 0.375000 0.905000 -0.375000
v 0.375000 0.905000 0.375000
v -0.500000 0.005000 0.375000
v -0.500000 0.005000 0.500000
v -0.375000 0.005000 -0.500000
v -0.500000 0.005000 -0.500000
v 0.500000 0.005000 -0.375000
v 0.500000 0.005000 -0.500000
v 0.375000 0.005000 0.500000
v 0.500000 0.005000 0.500000
v -0.500000 0.005000 -0.375000
v 0.375000 0.005000 -0.500000
v 0.500000 0.005000 0.375000
v -0.375000 0.005000 0.500000
v -0.375000 0.005000 0.375000
v -0.375000 0.005000 -0.375000
v 0.375000 0.005000 0.375000
v 0.375000 0.005000 -0.375000
vn -1.0000 -0.0000 0.0000
vn 0.0000 0.0000 -1.0000
vn 1.0000 -0.0000 0.0000
vn 0.0000 0.0000 1.0000
vn 0.0000 1.0000 0.0000
vn 0.0000 -1.0000 0.0000
usemtl None
s off
f 1//1 2//1 4//1 3//1 9//1 10//1
f 3//2 4//2 8//2 7//2 11//2 12//2
f 7//3 8//3 6//3 5//3 13//3 14//3
f 5//4 6//4 2//4 1//4 15//4 16//4
f 8//5 4//5 2//5 6//5
f 18//6 20//6 16//6 15//6
f 9//6 17//6 18//6 10//6
f 12//6 11//6 19//6 17//6
f 17//6 19//6 20//6 18//6
f 19//6 14//6 13//6 20//6
f 20//2 13//2 31//2 35//2
f 13//3 5//3 28//3 31//3
f 16//1 20//1 35//1 27//1
f 14//4 19//4 36//4 25//4
f 27//6 35//6 31//6 28//6
f 25//6 36//6 30//6 26//6
f 24//6 23//6 34//6 29//6
f 22//6 21//6 33//6 32//6
f 19//1 11//1 30//1 36//1
f 5//4 16//4 27//4 28//4
f 15//4 1//4 22//4 32//4
f 17//4 9//4 29//4 34//4
f 3//2 12//2 23//2 24//2
f 9//1 3//1 24//1 29//1
f 10//2 18//2 33//2 21//2
f 18//3 15//3 32//3 33//3
f 12//3 17//3 34//3 23//3
f 11//2 7//2 26//2 30//2
f 7//3 14//3 25//3 26//3
f 1//1 10//1 21//1 22//1
