# Blender v2.79 (sub 0) OBJ File: 'tea_saucer.blend'
# www.blender.org
mtllib tea_saucer.mtl
o Circle
v 0.000000 0.007000 -0.070000
v -0.026788 0.007000 -0.064672
v -0.049497 0.007000 -0.049497
v -0.064672 0.007000 -0.026788
v -0.070000 0.007000 0.000000
v -0.064672 0.007000 0.026788
v -0.049497 0.007000 0.049497
v -0.026788 0.007000 0.064672
v -0.000000 0.007000 0.070000
v 0.026788 0.007000 0.064672
v 0.049497 0.007000 0.049497
v 0.064672 0.007000 0.026788
v 0.070000 0.007000 -0.000000
v 0.064672 0.007000 -0.026788
v 0.049497 0.007000 -0.049497
v 0.026788 0.007000 -0.064672
v -0.000000 0.000000 -0.035000
v -0.013394 0.000000 -0.032336
v -0.024749 0.000000 -0.024749
v -0.032336 0.000000 -0.013394
v -0.035000 0.000000 0.000000
v -0.032336 0.000000 0.013394
v -0.024749 0.000000 0.024749
v -0.013394 0.000000 0.032336
v -0.000000 0.000000 0.035000
v 0.013394 0.000000 0.032336
v 0.024749 0.000000 0.024749
v 0.032336 0.000000 0.013394
v 0.035000 0.000000 -0.000000
v 0.032336 0.000000 -0.013394
v 0.024749 0.000000 -0.024749
v 0.013394 0.000000 -0.032336
v 0.000000 0.007000 -0.070000
v -0.026788 0.007000 -0.064672
v -0.049497 0.007000 -0.049497
v -0.064672 0.007000 -0.026788
v -0.070000 0.007000 0.000000
v -0.064672 0.007000 0.026788
v -0.049497 0.007000 0.049497
v -0.026788 0.007000 0.064672
v -0.000000 0.007000 0.070000
v 0.026788 0.007000 0.064672
v 0.049497 0.007000 0.049497
v 0.064672 0.007000 0.026788
v 0.070000 0.007000 -0.000000
v 0.064672 0.007000 -0.026788
v 0.049497 0.007000 -0.049497
v 0.026788 0.007000 -0.064672
v -0.000000 0.000000 -0.035000
v -0.013394 0.000000 -0.032336
v -0.024749 0.000000 -0.024749
v -0.032336 0.000000 -0.013394
v -0.035000 0.000000 0.000000
v -0.032336 0.000000 0.013394
v -0.024749 0.000000 0.024749
v -0.013394 0.000000 0.032336
v -0.000000 0.000000 0.035000
v 0.013394 0.000000 0.032336
v 0.024749 0.000000 0.024749
v 0.032336 0.000000 0.013394
v 0.035000 0.000000 -0.000000
v 0.032336 0.000000 -0.013394
v 0.024749 0.000000 -0.024749
v 0.013394 0.000000 -0.032336
vn -0.0390 -0.9798 -0.1960
vn 0.0390 -0.9798 -0.1960
vn 0.0390 -0.9798 0.1960
vn -0.1110 -0.9798 -0.1661
vn 0.1110 -0.9798 0.1661
vn -0.1661 -0.9798 -0.1110
vn 0.1661 -0.9798 0.1110
vn -0.1960 -0.9798 -0.0390
vn 0.1960 -0.9798 0.0390
vn -0.1960 -0.9798 0.0390
vn 0.1960 -0.9798 -0.0390
vn -0.1661 -0.9798 0.1110
vn 0.1661 -0.9798 -0.1110
vn -0.1110 -0.9798 0.1661
vn 0.1110 -0.9798 -0.1661
vn -0.0390 -0.9798 0.1960
vn 0.0000 -1.0000 0.0000
vn 0.0390 0.9798 0.1960
vn -0.0390 0.9798 0.1960
vn -0.0390 0.9798 -0.1960
vn 0.1110 0.9798 0.1661
vn -0.1110 0.9798 -0.1661
vn 0.1661 0.9798 0.1110
vn -0.1661 0.9798 -0.1110
vn 0.1960 0.9798 0.0390
vn -0.1960 0.9798 -0.0390
vn 0.1960 0.9798 -0.0390
vn -0.1960 0.9798 0.0390
vn 0.1661 0.9798 -0.1110
vn -0.1661 0.9798 0.1110
vn 0.1110 0.9798 -0.1661
vn -0.1110 0.9798 0.1661
vn 0.0390 0.9798 -0.1960
vn 0.0000 1.0000 0.0000
usemtl None
s off
f 2//1 1//1 17//1 18//1
f 1//2 16//2 32//2 17//2
f 10//3 9//3 25//3 26//3
f 3//4 2//4 18//4 19//4
f 11//5 10//5 26//5 27//5
f 4//6 3//6 19//6 20//6
f 12//7 11//7 27//7 28//7
f 5//8 4//8 20//8 21//8
f 13//9 12//9 28//9 29//9
f 6//10 5//10 21//10 22//10
f 14//11 13//11 29//11 30//11
f 7//12 6//12 22//12 23//12
f 15//13 14//13 30//13 31//13
f 8//14 7//14 23//14 24//14
f 16//15 15//15 31//15 32//15
f 9//16 8//16 24//16 25//16
f 18//17 17//17 32//17 31//17 30//17 29//17 28//17 27//17 26//17 25//17 24//17 23//17 22//17 21//17 20//17 19//17
f 34//18 50//18 49//18 33//18
f 33//19 49//19 64//19 48//19
f 42//20 58//20 57//20 41//20
f 35//21 51//21 50//21 34//21
f 43//22 59//22 58//22 42//22
f 36//23 52//23 51//23 35//23
f 44//24 60//24 59//24 43//24
f 37//25 53//25 52//25 36//25
f 45//26 61//26 60//26 44//26
f 38//27 54//27 53//27 37//27
f 46//28 62//28 61//28 45//28
f 39//29 55//29 54//29 38//29
f 47//30 63//30 62//30 46//30
f 40//31 56//31 55//31 39//31
f 48//32 64//32 63//32 47//32
f 41//33 57//33 56//33 40//33
f 50//34 51//34 52//34 53//34 54//34 55//34 56//34 57//34 58//34 59//34 60//34 61//34 62//34 63//34 64//34 49//34
