# Blender v2.79 (sub 0) OBJ File: ''
# www.blender.org
mtllib thunderdome.mtl
o Sphere
v 0.000000 0.000000 -1.000000
v 0.000000 -0.195090 -0.980785
v 0.000000 -0.831470 -0.555570
v 0.195090 0.000000 -0.980785
v 0.191342 -0.195090 -0.961940
v 0.180240 -0.382683 -0.906127
v 0.162212 -0.555570 -0.815493
v 0.137950 -0.707107 -0.693520
v 0.108386 -0.831470 -0.544895
v 0.074658 -0.923880 -0.375330
v 0.038060 -0.980785 -0.191341
v 0.382684 0.000000 -0.923879
v 0.375330 -0.195090 -0.906127
v 0.353554 -0.382683 -0.853553
v 0.318190 -0.555570 -0.768178
v 0.270598 -0.707107 -0.653281
v 0.212608 -0.831470 -0.513280
v 0.146447 -0.923880 -0.353553
v 0.074658 -0.980785 -0.180240
v 0.555570 0.000000 -0.831469
v 0.544895 -0.195090 -0.815493
v 0.513280 -0.382683 -0.768178
v 0.461940 -0.555570 -0.691342
v 0.392848 -0.707107 -0.587938
v 0.308658 -0.831470 -0.461940
v 0.212608 -0.923880 -0.318189
v 0.108386 -0.980785 -0.162211
v 0.707107 0.000000 -0.707107
v 0.693520 -0.195090 -0.693520
v 0.653282 -0.382683 -0.653281
v 0.587938 -0.555570 -0.587938
v 0.500000 -0.707107 -0.500000
v 0.392848 -0.831470 -0.392847
v 0.270598 -0.923880 -0.270598
v 0.137950 -0.980785 -0.137949
v 0.831470 0.000000 -0.555570
v 0.815493 -0.195090 -0.544895
v 0.768178 -0.382683 -0.513280
v 0.691342 -0.555570 -0.461940
v 0.587938 -0.707107 -0.392847
v 0.461940 -0.831470 -0.308658
v 0.318190 -0.923880 -0.212607
v 0.162212 -0.980785 -0.108386
v 0.923880 0.000000 -0.382683
v 0.906128 -0.195090 -0.375330
v 0.853554 -0.382683 -0.353553
v 0.768178 -0.555570 -0.318189
v 0.653282 -0.707107 -0.270598
v 0.513280 -0.831470 -0.212607
v 0.353554 -0.923880 -0.146446
v 0.180240 -0.980785 -0.074658
v 0.980785 0.000000 -0.195090
v 0.961940 -0.195090 -0.191341
v 0.906128 -0.382683 -0.180240
v 0.815493 -0.555570 -0.162211
v 0.693520 -0.707107 -0.137949
v 0.544895 -0.831470 -0.108386
v 0.375330 -0.923880 -0.074658
v 0.191342 -0.980785 -0.038060
v 1.000000 0.000000 0.000000
v 0.980785 -0.195090 0.000000
v 0.923880 -0.382683 0.000000
v 0.831470 -0.555570 0.000000
v 0.707107 -0.707107 0.000000
v 0.555570 -0.831470 0.000000
v 0.382684 -0.923880 0.000000
v 0.195090 -0.980785 0.000000
v 0.980785 0.000000 0.195091
v 0.961940 -0.195090 0.191342
v 0.906128 -0.382683 0.180240
v 0.815493 -0.555570 0.162212
v 0.693520 -0.707107 0.137950
v 0.544895 -0.831470 0.108387
v 0.375330 -0.923880 0.074658
v 0.191342 -0.980785 0.038061
v 0.923880 0.000000 0.382684
v 0.906127 -0.195090 0.375331
v 0.853554 -0.382683 0.353554
v 0.768178 -0.555570 0.318190
v 0.653282 -0.707107 0.270598
v 0.513280 -0.831470 0.212608
v 0.353553 -0.923880 0.146447
v 0.180240 -0.980785 0.074658
v 0.831470 0.000000 0.555571
v 0.815493 -0.195090 0.544895
v 0.768178 -0.382683 0.513280
v 0.691342 -0.555570 0.461940
v 0.587938 -0.707107 0.392848
v 0.461940 -0.831470 0.308659
v 0.318190 -0.923880 0.212608
v 0.162212 -0.980785 0.108387
v 0.707107 0.000000 0.707107
v 0.693520 -0.195090 0.693520
v 0.653282 -0.382683 0.653282
v 0.587938 -0.555570 0.587938
v 0.500000 -0.707107 0.500000
v 0.392848 -0.831470 0.392848
v 0.270598 -0.923880 0.270598
v 0.137950 -0.980785 0.137950
v 0.555570 0.000000 0.831470
v 0.544895 -0.195090 0.815493
v 0.513280 -0.382683 0.768178
v 0.461940 -0.555570 0.691342
v 0.392848 -0.707107 0.587938
v 0.308658 -0.831470 0.461940
v 0.212608 -0.923880 0.318190
v 0.108386 -0.980785 0.162212
v 0.000000 -1.000000 0.000000
v 0.382683 0.000000 0.923880
v 0.375330 -0.195090 0.906128
v 0.353553 -0.382683 0.853554
v 0.318190 -0.555570 0.768178
v 0.270598 -0.707107 0.653282
v 0.212608 -0.831470 0.513280
v 0.146447 -0.923880 0.353554
v 0.074658 -0.980785 0.180240
v 0.195090 0.000000 0.980786
v 0.191342 -0.195090 0.961940
v 0.180240 -0.382683 0.906128
v 0.162212 -0.555570 0.815493
v 0.137950 -0.707107 0.693520
v 0.108386 -0.831470 0.544895
v 0.074658 -0.923880 0.375331
v 0.038060 -0.980785 0.191342
v -0.000000 0.000000 1.000000
v -0.000000 -0.195090 0.980785
v 0.000000 -0.382683 0.923880
v -0.000000 -0.555570 0.831470
v -0.000000 -0.707107 0.707107
v -0.000000 -0.831470 0.555570
v 0.000000 -0.923880 0.382684
v 0.000000 -0.980785 0.195091
v -0.195090 0.000000 0.980786
v -0.191342 -0.195090 0.961940
v -0.180240 -0.382683 0.906128
v -0.162212 -0.555570 0.815493
v -0.137950 -0.707107 0.693520
v -0.108386 -0.831470 0.544895
v -0.074658 -0.923880 0.375331
v -0.038060 -0.980785 0.191342
v -0.382684 0.000000 0.923880
v -0.375330 -0.195090 0.906127
v -0.353553 -0.382683 0.853554
v -0.318190 -0.555570 0.768178
v -0.270598 -0.707107 0.653282
v -0.212608 -0.831470 0.513280
v -0.146447 -0.923880 0.353554
v -0.074658 -0.980785 0.180240
v -0.555570 0.000000 0.831470
v -0.544895 -0.195090 0.815493
v -0.513280 -0.382683 0.768178
v -0.461940 -0.555570 0.691342
v -0.392847 -0.707107 0.587938
v -0.308658 -0.831470 0.461940
v -0.212607 -0.923880 0.318190
v -0.108386 -0.980785 0.162212
v -0.000000 1.000000 0.000001
v -0.707107 0.000000 0.707107
v -0.693520 -0.195090 0.693520
v -0.653281 -0.382683 0.653282
v -0.587938 -0.555570 0.587938
v -0.500000 -0.707107 0.500000
v -0.392847 -0.831470 0.392848
v -0.270598 -0.923880 0.270598
v -0.137950 -0.980785 0.137950
v -0.831470 0.000000 0.555570
v -0.815493 -0.195090 0.544895
v -0.768178 -0.382683 0.513280
v -0.691342 -0.555570 0.461940
v -0.587938 -0.707107 0.392848
v -0.461940 -0.831470 0.308658
v -0.318190 -0.923880 0.212608
v -0.162212 -0.980785 0.108387
v -0.923880 0.000000 0.382684
v -0.906127 -0.195090 0.375330
v -0.853553 -0.382683 0.353554
v -0.768177 -0.555570 0.318190
v -0.653281 -0.707107 0.270598
v -0.513280 -0.831470 0.212608
v -0.353553 -0.923880 0.146447
v -0.180240 -0.980785 0.074658
v -0.980785 0.000000 0.195090
v -0.961939 -0.195090 0.191342
v -0.906127 -0.382683 0.180240
v -0.815493 -0.555570 0.162212
v -0.693520 -0.707107 0.137950
v -0.544895 -0.831470 0.108387
v -0.375330 -0.923880 0.074658
v -0.191342 -0.980785 0.038061
v -1.000000 0.000000 0.000000
v -0.980785 -0.195090 0.000000
v -0.923879 -0.382683 0.000000
v -0.831469 -0.555570 0.000000
v -0.707107 -0.707107 0.000000
v -0.555570 -0.831470 0.000000
v -0.382683 -0.923880 0.000000
v -0.195090 -0.980785 0.000000
v -0.980785 0.000000 -0.195090
v -0.961939 -0.195090 -0.191342
v -0.906127 -0.382683 -0.180240
v -0.815493 -0.555570 -0.162211
v -0.693520 -0.707107 -0.137949
v -0.544895 -0.831470 -0.108386
v -0.375330 -0.923880 -0.074658
v -0.191342 -0.980785 -0.038060
v -0.923879 0.000000 -0.382683
v -0.906127 -0.195090 -0.375330
v -0.853553 -0.382683 -0.353553
v -0.768177 -0.555570 -0.318189
v -0.653281 -0.707107 -0.270598
v -0.513280 -0.831470 -0.212607
v -0.353553 -0.923880 -0.146446
v -0.180240 -0.980785 -0.074657
v -0.831469 0.000000 -0.555570
v -0.815493 -0.195090 -0.544895
v -0.768178 -0.382683 -0.513280
v -0.691341 -0.555570 -0.461939
v -0.587938 -0.707107 -0.392847
v -0.461940 -0.831470 -0.308658
v -0.318189 -0.923880 -0.212607
v -0.162212 -0.980785 -0.108386
v -0.707106 0.000000 -0.707106
v -0.693519 -0.195090 -0.693519
v -0.653281 -0.382683 -0.653281
v -0.587937 -0.555570 -0.587937
v -0.500000 -0.707107 -0.500000
v -0.392847 -0.831470 -0.392847
v -0.270598 -0.923880 -0.270598
v -0.137950 -0.980785 -0.137949
v -0.555570 0.000000 -0.831469
v -0.544895 -0.195090 -0.815492
v -0.513280 -0.382683 -0.768177
v -0.461939 -0.555570 -0.691341
v -0.392847 -0.707107 -0.587937
v -0.308658 -0.831470 -0.461939
v -0.212607 -0.923880 -0.318189
v -0.108386 -0.980785 -0.162211
v -0.382683 0.000000 -0.923879
v -0.375330 -0.195090 -0.906127
v -0.353553 -0.382683 -0.853553
v -0.318189 -0.555570 -0.768177
v -0.270598 -0.707107 -0.653281
v -0.212607 -0.831470 -0.513279
v -0.146446 -0.923880 -0.353553
v -0.074658 -0.980785 -0.180240
v -0.195090 0.000000 -0.980785
v -0.191341 -0.195090 -0.961939
v -0.180240 -0.382683 -0.906127
v -0.162211 -0.555570 -0.815492
v -0.137950 -0.707107 -0.693520
v -0.108386 -0.831470 -0.544895
v -0.074658 -0.923880 -0.375330
v -0.038060 -0.980785 -0.191341
v 0.000000 -0.382683 -0.923879
v 0.000000 -0.555570 -0.831469
v 0.000000 -0.707107 -0.707106
v 0.000000 -0.923880 -0.382683
v 0.000000 -0.980785 -0.195090
vn -0.0865 0.4696 0.8786
vn -0.0759 0.6326 0.7708
vn -0.0624 0.7715 0.6332
vn -0.0464 0.8810 0.4709
vn -0.0286 0.9565 0.2902
vn -0.0097 0.9951 0.0980
vn -0.0976 0.0975 0.9904
vn -0.0938 0.2890 0.9527
vn -0.2779 0.2890 0.9161
vn -0.2563 0.4696 0.8448
vn -0.2248 0.6326 0.7412
vn -0.1847 0.7715 0.6088
vn -0.1374 0.8810 0.4528
vn -0.0846 0.9565 0.2790
vn -0.0286 0.9951 0.0942
vn -0.2889 0.0975 0.9524
vn -0.2230 0.8810 0.4173
vn -0.1374 0.9565 0.2571
vn -0.0464 0.9951 0.0869
vn -0.4691 0.0975 0.8777
vn -0.4513 0.2890 0.8443
vn -0.4162 0.4696 0.7786
vn -0.3651 0.6326 0.6831
vn -0.2999 0.7715 0.5611
vn -0.6073 0.2890 0.7400
vn -0.5601 0.4696 0.6825
vn -0.4913 0.6326 0.5987
vn -0.4036 0.7715 0.4918
vn -0.3002 0.8810 0.3658
vn -0.1850 0.9565 0.2254
vn -0.0625 0.9951 0.0761
vn -0.6314 0.0976 0.7693
vn -0.3658 0.8810 0.3002
vn -0.2254 0.9565 0.1850
vn -0.0761 0.9951 0.0625
vn -0.7693 0.0975 0.6314
vn -0.7400 0.2890 0.6073
vn -0.6825 0.4696 0.5601
vn -0.5987 0.6326 0.4913
vn -0.4918 0.7715 0.4036
vn -0.7786 0.4696 0.4162
vn -0.6831 0.6326 0.3651
vn -0.5611 0.7715 0.2999
vn -0.4173 0.8810 0.2231
vn -0.2571 0.9565 0.1374
vn -0.0869 0.9951 0.0464
vn -0.8777 0.0976 0.4691
vn -0.8443 0.2890 0.4513
vn -0.2790 0.9565 0.0846
vn -0.0942 0.9951 0.0286
vn -0.9524 0.0976 0.2889
vn -0.9161 0.2890 0.2779
vn -0.8448 0.4696 0.2563
vn -0.7412 0.6326 0.2248
vn -0.6088 0.7715 0.1847
vn -0.4528 0.8810 0.1374
vn -0.7708 0.6326 0.0759
vn -0.6332 0.7715 0.0624
vn -0.4709 0.8810 0.0464
vn -0.2902 0.9565 0.0286
vn -0.0980 0.9951 0.0097
vn -0.9904 0.0976 0.0975
vn -0.9527 0.2890 0.0938
vn -0.8786 0.4696 0.0865
vn -0.0980 0.9951 -0.0097
vn -0.9904 0.0976 -0.0975
vn -0.9527 0.2890 -0.0938
vn -0.8786 0.4696 -0.0865
vn -0.7708 0.6326 -0.0759
vn -0.6332 0.7715 -0.0624
vn -0.4709 0.8810 -0.0464
vn -0.2902 0.9565 -0.0286
vn -0.7412 0.6326 -0.2248
vn -0.6088 0.7715 -0.1847
vn -0.4528 0.8810 -0.1374
vn -0.2790 0.9565 -0.0846
vn -0.0942 0.9951 -0.0286
vn -0.9524 0.0976 -0.2889
vn -0.9161 0.2890 -0.2779
vn -0.8448 0.4696 -0.2563
vn -0.0869 0.9951 -0.0464
vn -0.8777 0.0976 -0.4691
vn -0.8443 0.2890 -0.4513
vn -0.7786 0.4696 -0.4162
vn -0.6831 0.6326 -0.3651
vn -0.5611 0.7715 -0.2999
vn -0.4173 0.8810 -0.2231
vn -0.2571 0.9565 -0.1374
vn -0.4918 0.7715 -0.4036
vn -0.3658 0.8810 -0.3002
vn -0.2254 0.9565 -0.1850
vn -0.0761 0.9951 -0.0625
vn -0.7693 0.0976 -0.6314
vn -0.7400 0.2890 -0.6073
vn -0.6825 0.4696 -0.5601
vn -0.5987 0.6326 -0.4913
vn -0.6314 0.0976 -0.7693
vn -0.6073 0.2890 -0.7400
vn -0.5601 0.4696 -0.6825
vn -0.4913 0.6326 -0.5987
vn -0.4036 0.7715 -0.4918
vn -0.3002 0.8810 -0.3658
vn -0.1850 0.9565 -0.2254
vn -0.0625 0.9951 -0.0761
vn -0.2999 0.7715 -0.5611
vn -0.2230 0.8810 -0.4173
vn -0.1374 0.9565 -0.2571
vn -0.0464 0.9951 -0.0869
vn -0.4691 0.0976 -0.8777
vn -0.4513 0.2890 -0.8443
vn -0.4162 0.4696 -0.7786
vn -0.3651 0.6326 -0.6831
vn -0.2779 0.2890 -0.9161
vn -0.2563 0.4696 -0.8448
vn -0.2248 0.6326 -0.7412
vn -0.1847 0.7715 -0.6088
vn -0.1374 0.8810 -0.4528
vn -0.0846 0.9565 -0.2790
vn -0.0286 0.9951 -0.0942
vn -0.2889 0.0976 -0.9524
vn -0.0464 0.8810 -0.4709
vn -0.0286 0.9565 -0.2902
vn -0.0097 0.9951 -0.0980
vn -0.0975 0.0976 -0.9904
vn -0.0938 0.2890 -0.9527
vn -0.0865 0.4696 -0.8786
vn -0.0759 0.6326 -0.7708
vn -0.0624 0.7715 -0.6332
vn 0.0865 0.4696 -0.8786
vn 0.0759 0.6326 -0.7708
vn 0.0624 0.7715 -0.6332
vn 0.0464 0.8810 -0.4709
vn 0.0286 0.9565 -0.2902
vn 0.0097 0.9951 -0.0980
vn 0.0976 0.0976 -0.9904
vn 0.0938 0.2890 -0.9527
vn 0.0846 0.9565 -0.2790
vn 0.0286 0.9951 -0.0942
vn 0.2889 0.0976 -0.9524
vn 0.2779 0.2890 -0.9161
vn 0.2563 0.4696 -0.8448
vn 0.2248 0.6326 -0.7412
vn 0.1847 0.7715 -0.6088
vn 0.1374 0.8810 -0.4528
vn 0.4162 0.4696 -0.7786
vn 0.3651 0.6326 -0.6831
vn 0.2999 0.7715 -0.5611
vn 0.2230 0.8810 -0.4173
vn 0.1374 0.9565 -0.2571
vn 0.0464 0.9951 -0.0869
vn 0.4691 0.0976 -0.8777
vn 0.4513 0.2890 -0.8443
vn 0.1850 0.9565 -0.2254
vn 0.0625 0.9951 -0.0761
vn 0.6314 0.0976 -0.7693
vn 0.6073 0.2890 -0.7400
vn 0.5601 0.4696 -0.6825
vn 0.4913 0.6326 -0.5987
vn 0.4036 0.7715 -0.4918
vn 0.3002 0.8810 -0.3658
vn 0.5987 0.6326 -0.4913
vn 0.4918 0.7715 -0.4036
vn 0.3658 0.8810 -0.3002
vn 0.2254 0.9565 -0.1850
vn 0.0761 0.9951 -0.0625
vn 0.7693 0.0976 -0.6314
vn 0.7400 0.2890 -0.6073
vn 0.6825 0.4696 -0.5601
vn 0.0869 0.9951 -0.0464
vn 0.8777 0.0976 -0.4691
vn 0.8443 0.2890 -0.4513
vn 0.7786 0.4696 -0.4162
vn 0.6831 0.6326 -0.3651
vn 0.5611 0.7715 -0.2999
vn 0.4173 0.8810 -0.2231
vn 0.2571 0.9565 -0.1374
vn 0.7412 0.6326 -0.2248
vn 0.6088 0.7715 -0.1847
vn 0.4528 0.8810 -0.1374
vn 0.2790 0.9565 -0.0846
vn 0.0942 0.9951 -0.0286
vn 0.9524 0.0976 -0.2889
vn 0.9161 0.2890 -0.2779
vn 0.8448 0.4696 -0.2563
vn 0.0980 0.9951 -0.0097
vn 0.9904 0.0976 -0.0975
vn 0.9527 0.2890 -0.0938
vn 0.8786 0.4696 -0.0865
vn 0.7708 0.6326 -0.0759
vn 0.6332 0.7715 -0.0624
vn 0.4709 0.8810 -0.0464
vn 0.2902 0.9565 -0.0286
vn 0.6332 0.7715 0.0624
vn 0.4709 0.8810 0.0464
vn 0.2902 0.9565 0.0286
vn 0.0980 0.9951 0.0097
vn 0.9904 0.0976 0.0976
vn 0.9527 0.2890 0.0938
vn 0.8786 0.4696 0.0865
vn 0.7708 0.6326 0.0759
vn 0.9161 0.2890 0.2779
vn 0.8448 0.4696 0.2563
vn 0.7412 0.6326 0.2248
vn 0.6088 0.7715 0.1847
vn 0.4528 0.8810 0.1374
vn 0.2790 0.9565 0.0846
vn 0.0942 0.9951 0.0286
vn 0.9524 0.0976 0.2889
vn 0.4173 0.8810 0.2231
vn 0.2571 0.9565 0.1374
vn 0.0869 0.9951 0.0464
vn 0.8777 0.0976 0.4691
vn 0.8443 0.2890 0.4513
vn 0.7786 0.4696 0.4162
vn 0.6831 0.6326 0.3651
vn 0.5611 0.7715 0.2999
vn 0.7400 0.2890 0.6073
vn 0.6825 0.4696 0.5601
vn 0.5987 0.6326 0.4913
vn 0.4918 0.7715 0.4036
vn 0.3658 0.8810 0.3002
vn 0.2254 0.9565 0.1850
vn 0.0761 0.9951 0.0625
vn 0.7693 0.0976 0.6314
vn 0.3002 0.8810 0.3658
vn 0.1850 0.9565 0.2254
vn 0.0625 0.9951 0.0761
vn 0.6314 0.0976 0.7693
vn 0.6073 0.2890 0.7400
vn 0.5601 0.4696 0.6825
vn 0.4913 0.6326 0.5987
vn 0.4036 0.7715 0.4918
vn 0.4162 0.4696 0.7786
vn 0.3651 0.6326 0.6831
vn 0.2999 0.7715 0.5611
vn 0.2230 0.8810 0.4173
vn 0.1374 0.9565 0.2571
vn 0.0464 0.9951 0.0869
vn 0.4691 0.0976 0.8777
vn 0.4513 0.2890 0.8443
vn 0.0846 0.9565 0.2790
vn 0.0286 0.9951 0.0942
vn 0.2889 0.0976 0.9524
vn 0.2779 0.2890 0.9161
vn 0.2563 0.4696 0.8448
vn 0.2248 0.6326 0.7412
vn 0.1847 0.7715 0.6088
vn 0.1374 0.8810 0.4528
vn 0.0865 0.4696 0.8786
vn 0.0759 0.6326 0.7708
vn 0.0624 0.7715 0.6332
vn 0.0464 0.8810 0.4709
vn 0.0286 0.9565 0.2902
vn 0.0097 0.9951 0.0980
vn 0.0976 0.0976 0.9904
vn 0.0938 0.2890 0.9527
usemtl None
s off
f 255//1 7//1 6//1 254//1
f 256//2 8//2 7//2 255//2
f 3//3 9//3 8//3 256//3
f 257//4 10//4 9//4 3//4
f 258//5 11//5 10//5 257//5
f 108//6 11//6 258//6
f 2//7 5//7 4//7 1//7
f 254//8 6//8 5//8 2//8
f 6//9 14//9 13//9 5//9
f 7//10 15//10 14//10 6//10
f 8//11 16//11 15//11 7//11
f 9//12 17//12 16//12 8//12
f 10//13 18//13 17//13 9//13
f 11//14 19//14 18//14 10//14
f 108//15 19//15 11//15
f 5//16 13//16 12//16 4//16
f 18//17 26//17 25//17 17//17
f 19//18 27//18 26//18 18//18
f 108//19 27//19 19//19
f 13//20 21//20 20//20 12//20
f 14//21 22//21 21//21 13//21
f 15//22 23//22 22//22 14//22
f 16//23 24//23 23//23 15//23
f 17//24 25//24 24//24 16//24
f 22//25 30//25 29//25 21//25
f 23//26 31//26 30//26 22//26
f 24//27 32//27 31//27 23//27
f 25//28 33//28 32//28 24//28
f 26//29 34//29 33//29 25//29
f 27//30 35//30 34//30 26//30
f 108//31 35//31 27//31
f 21//32 29//32 28//32 20//32
f 34//33 42//33 41//33 33//33
f 35//34 43//34 42//34 34//34
f 108//35 43//35 35//35
f 29//36 37//36 36//36 28//36
f 30//37 38//37 37//37 29//37
f 31//38 39//38 38//38 30//38
f 32//39 40//39 39//39 31//39
f 33//40 41//40 40//40 32//40
f 39//41 47//41 46//41 38//41
f 40//42 48//42 47//42 39//42
f 41//43 49//43 48//43 40//43
f 42//44 50//44 49//44 41//44
f 43//45 51//45 50//45 42//45
f 108//46 51//46 43//46
f 37//47 45//47 44//47 36//47
f 38//48 46//48 45//48 37//48
f 51//49 59//49 58//49 50//49
f 108//50 59//50 51//50
f 45//51 53//51 52//51 44//51
f 46//52 54//52 53//52 45//52
f 47//53 55//53 54//53 46//53
f 48//54 56//54 55//54 47//54
f 49//55 57//55 56//55 48//55
f 50//56 58//56 57//56 49//56
f 56//57 64//57 63//57 55//57
f 57//58 65//58 64//58 56//58
f 58//59 66//59 65//59 57//59
f 59//60 67//60 66//60 58//60
f 108//61 67//61 59//61
f 53//62 61//62 60//62 52//62
f 54//63 62//63 61//63 53//63
f 55//64 63//64 62//64 54//64
f 108//65 75//65 67//65
f 61//66 69//66 68//66 60//66
f 62//67 70//67 69//67 61//67
f 63//68 71//68 70//68 62//68
f 64//69 72//69 71//69 63//69
f 65//70 73//70 72//70 64//70
f 66//71 74//71 73//71 65//71
f 67//72 75//72 74//72 66//72
f 72//73 80//73 79//73 71//73
f 73//74 81//74 80//74 72//74
f 74//75 82//75 81//75 73//75
f 75//76 83//76 82//76 74//76
f 108//77 83//77 75//77
f 69//78 77//78 76//78 68//78
f 70//79 78//79 77//79 69//79
f 71//80 79//80 78//80 70//80
f 108//81 91//81 83//81
f 77//82 85//82 84//82 76//82
f 78//83 86//83 85//83 77//83
f 79//84 87//84 86//84 78//84
f 80//85 88//85 87//85 79//85
f 81//86 89//86 88//86 80//86
f 82//87 90//87 89//87 81//87
f 83//88 91//88 90//88 82//88
f 89//89 97//89 96//89 88//89
f 90//90 98//90 97//90 89//90
f 91//91 99//91 98//91 90//91
f 108//92 99//92 91//92
f 85//93 93//93 92//93 84//93
f 86//94 94//94 93//94 85//94
f 87//95 95//95 94//95 86//95
f 88//96 96//96 95//96 87//96
f 93//97 101//97 100//97 92//97
f 94//98 102//98 101//98 93//98
f 95//99 103//99 102//99 94//99
f 96//100 104//100 103//100 95//100
f 97//101 105//101 104//101 96//101
f 98//102 106//102 105//102 97//102
f 99//103 107//103 106//103 98//103
f 108//104 107//104 99//104
f 105//105 114//105 113//105 104//105
f 106//106 115//106 114//106 105//106
f 107//107 116//107 115//107 106//107
f 108//108 116//108 107//108
f 101//109 110//109 109//109 100//109
f 102//110 111//110 110//110 101//110
f 103//111 112//111 111//111 102//111
f 104//112 113//112 112//112 103//112
f 111//113 119//113 118//113 110//113
f 112//114 120//114 119//114 111//114
f 113//115 121//115 120//115 112//115
f 114//116 122//116 121//116 113//116
f 115//117 123//117 122//117 114//117
f 116//118 124//118 123//118 115//118
f 108//119 124//119 116//119
f 110//120 118//120 117//120 109//120
f 123//121 131//121 130//121 122//121
f 124//122 132//122 131//122 123//122
f 108//123 132//123 124//123
f 118//124 126//124 125//124 117//124
f 119//125 127//125 126//125 118//125
f 120//126 128//126 127//126 119//126
f 121//127 129//127 128//127 120//127
f 122//128 130//128 129//128 121//128
f 128//129 136//129 135//129 127//129
f 129//130 137//130 136//130 128//130
f 130//131 138//131 137//131 129//131
f 131//132 139//132 138//132 130//132
f 132//133 140//133 139//133 131//133
f 108//134 140//134 132//134
f 126//135 134//135 133//135 125//135
f 127//136 135//136 134//136 126//136
f 140//137 148//137 147//137 139//137
f 108//138 148//138 140//138
f 134//139 142//139 141//139 133//139
f 135//140 143//140 142//140 134//140
f 136//141 144//141 143//141 135//141
f 137//142 145//142 144//142 136//142
f 138//143 146//143 145//143 137//143
f 139//144 147//144 146//144 138//144
f 144//145 152//145 151//145 143//145
f 145//146 153//146 152//146 144//146
f 146//147 154//147 153//147 145//147
f 147//148 155//148 154//148 146//148
f 148//149 156//149 155//149 147//149
f 108//150 156//150 148//150
f 142//151 150//151 149//151 141//151
f 143//152 151//152 150//152 142//152
f 156//153 165//153 164//153 155//153
f 108//154 165//154 156//154
f 150//155 159//155 158//155 149//155
f 151//156 160//156 159//156 150//156
f 152//157 161//157 160//157 151//157
f 153//158 162//158 161//158 152//158
f 154//159 163//159 162//159 153//159
f 155//160 164//160 163//160 154//160
f 162//161 170//161 169//161 161//161
f 163//162 171//162 170//162 162//162
f 164//163 172//163 171//163 163//163
f 165//164 173//164 172//164 164//164
f 108//165 173//165 165//165
f 159//166 167//166 166//166 158//166
f 160//167 168//167 167//167 159//167
f 161//168 169//168 168//168 160//168
f 108//169 181//169 173//169
f 167//170 175//170 174//170 166//170
f 168//171 176//171 175//171 167//171
f 169//172 177//172 176//172 168//172
f 170//173 178//173 177//173 169//173
f 171//174 179//174 178//174 170//174
f 172//175 180//175 179//175 171//175
f 173//176 181//176 180//176 172//176
f 178//177 186//177 185//177 177//177
f 179//178 187//178 186//178 178//178
f 180//179 188//179 187//179 179//179
f 181//180 189//180 188//180 180//180
f 108//181 189//181 181//181
f 175//182 183//182 182//182 174//182
f 176//183 184//183 183//183 175//183
f 177//184 185//184 184//184 176//184
f 108//185 197//185 189//185
f 183//186 191//186 190//186 182//186
f 184//187 192//187 191//187 183//187
f 185//188 193//188 192//188 184//188
f 186//189 194//189 193//189 185//189
f 187//190 195//190 194//190 186//190
f 188//191 196//191 195//191 187//191
f 189//192 197//192 196//192 188//192
f 195//193 203//193 202//193 194//193
f 196//194 204//194 203//194 195//194
f 197//195 205//195 204//195 196//195
f 108//196 205//196 197//196
f 191//197 199//197 198//197 190//197
f 192//198 200//198 199//198 191//198
f 193//199 201//199 200//199 192//199
f 194//200 202//200 201//200 193//200
f 200//201 208//201 207//201 199//201
f 201//202 209//202 208//202 200//202
f 202//203 210//203 209//203 201//203
f 203//204 211//204 210//204 202//204
f 204//205 212//205 211//205 203//205
f 205//206 213//206 212//206 204//206
f 108//207 213//207 205//207
f 199//208 207//208 206//208 198//208
f 212//209 220//209 219//209 211//209
f 213//210 221//210 220//210 212//210
f 108//211 221//211 213//211
f 207//212 215//212 214//212 206//212
f 208//213 216//213 215//213 207//213
f 209//214 217//214 216//214 208//214
f 210//215 218//215 217//215 209//215
f 211//216 219//216 218//216 210//216
f 216//217 224//217 223//217 215//217
f 217//218 225//218 224//218 216//218
f 218//219 226//219 225//219 217//219
f 219//220 227//220 226//220 218//220
f 220//221 228//221 227//221 219//221
f 221//222 229//222 228//222 220//222
f 108//223 229//223 221//223
f 215//224 223//224 222//224 214//224
f 228//225 236//225 235//225 227//225
f 229//226 237//226 236//226 228//226
f 108//227 237//227 229//227
f 223//228 231//228 230//228 222//228
f 224//229 232//229 231//229 223//229
f 225//230 233//230 232//230 224//230
f 226//231 234//231 233//231 225//231
f 227//232 235//232 234//232 226//232
f 233//233 241//233 240//233 232//233
f 234//234 242//234 241//234 233//234
f 235//235 243//235 242//235 234//235
f 236//236 244//236 243//236 235//236
f 237//237 245//237 244//237 236//237
f 108//238 245//238 237//238
f 231//239 239//239 238//239 230//239
f 232//240 240//240 239//240 231//240
f 245//241 253//241 252//241 244//241
f 108//242 253//242 245//242
f 239//243 247//243 246//243 238//243
f 240//244 248//244 247//244 239//244
f 241//245 249//245 248//245 240//245
f 242//246 250//246 249//246 241//246
f 243//247 251//247 250//247 242//247
f 244//248 252//248 251//248 243//248
f 249//249 255//249 254//249 248//249
f 250//250 256//250 255//250 249//250
f 251//251 3//251 256//251 250//251
f 252//252 257//252 3//252 251//252
f 253//253 258//253 257//253 252//253
f 108//254 258//254 253//254
f 247//255 2//255 1//255 246//255
f 248//256 254//256 2//256 247//256
